# xmcd CD database file
# Copyright (C) 1997 Ti Kan
# 
# Track frame offsets:
#     150
#     11610
#     24520
#     41120
#     52222
#     68942
#     87210
#     101252
#     117805
#     132905
#     144590
#     160332
#     176370
#     193030
# 
# Disc length: 2781 seconds
# 
# Revision: 1
# Processed by: cddbd v1.4b41PL1 Copyright (c) Steve Scherf et al.
# Submitted via: DiscPlay 4.0.3
# 
DISCID=bd0adb0e
DTITLE=Ray and Glover - Picture Has Faded
DYEAR=1900
DGENRE=
TTITLE0=Tell Me Mama
TTITLE1=Jimmy Bell
TTITLE2=Can't See Your Face
TTITLE3=Downtown Blues
TTITLE4=Sitting on Top of the World
TTITLE5=Long-Haired Doney
TTITLE6=Ice Blue
TTITLE7=Going Away Blues
TTITLE8=Afraid to Trust 'Em
TTITLE9=Mellow Chick Swing
TTITLE10=Saturday Blues
TTITLE11=New Buddy Brown
TTITLE12=If It Looks Like Jelly
TTITLE13=As The Years Go Passing By
EXTD=
EXTT0=
EXTT1=
EXTT2=
EXTT3=
EXTT4=
EXTT5=
EXTT6=
EXTT7=
EXTT8=
EXTT9=
EXTT10=
EXTT11=
EXTT12=
EXTT13=
PLAYORDER=
